# xmcd
#
# Track frame offsets: 
#        150
#        22707
#        46707
#        73757
#        100847
#        132390
#        150770
#        177595
#        196535
#        216940
#
# Disc length: 3098 seconds
#
# Revision: 6
# Processed by: cddbd v1.5.2PL0 Copyright (c) Steve Scherf et al.
# Submitted via: ExactAudioCopy v0.99pb4
#
DISCID=780c180a
DTITLE=Metal Church - The Human Factor
DYEAR=1991
DGENRE=Heavy Metal
TTITLE0=The Human Factor
TTITLE1=Date With Poverty
TTITLE2=The Final Word
TTITLE3=In Mourning
TTITLE4=In Harm's Way
TTITLE5=In Due Time
TTITLE6=Agent Green
TTITLE7=Flee From Reality
TTITLE8=Betrayed
TTITLE9=The Fight Song
EXTD=YEAR: 1991
EXTT0=
EXTT1=
EXTT2=
EXTT3=
EXTT4=
EXTT5=
EXTT6=
EXTT7=
EXTT8=
EXTT9=
PLAYORDER=
